 http://i26.photobucket.com/albums/c119/manojb/good.gif 
http://i26.photobucket.com/albums/c119/manojb/vlcsnap-2013-02-07-00h14m16s163.png 
http://i26.photobucket.com/albums/c119/manojb/vlcsnap-2013-02-07-00h14m25s250.png 
http://i26.photobucket.com/albums/c119/manojb/vlcsnap-2013-02-07-00h14m31s56.png 
http://i26.photobucket.com/albums/c119/manojb/vlcsnap-2013-02-07-00h14m38s124.png

Info - 
Watch Marathi Balgeet - Nacha Re Mora - Kids - Animation Poem. Listen to this entertaining song where a peacock is beautifully dancing and showing its talent.

Media Info - 
General
Complete name                  : Nach Re Mora - Animated Balgeet - Kids [TMB].avi
Format                         : AVI
Format/Info                    : Audio Video Interleave
File size                      : 20.2 MiB
Duration                       : 3mn 13s
Overall bit rate               : 876 Kbps

Video
ID                             : 0
Format                         : MPEG-4 Visual
Format profile                 : Advanced Simple@L1
Format settings, BVOP          : 2
Format settings, QPel          : No
Format settings, GMC           : No warppoints
Format settings, Matrix        : Default (H.263)
Codec ID                       : DIVX
Codec ID/Info                  : Project Mayo
Codec ID/Hint                  : DivX 4
Duration                       : 3mn 13s
Bit rate                       : 726 Kbps
Width                          : 468 pixels
Height                         : 360 pixels
Display aspect ratio           : 4:3
Frame rate                     : 25.000 fps
Color space                    : YUV
Chroma subsampling             : 4:2:0
Bit depth                      : 8 bits
Scan type                      : Progressive
Compression mode               : Lossy
Bits/(Pixel*Frame)             : 0.172
Stream size                    : 16.8 MiB (83%)
Writing library                : Lavc54.59.100

Audio
ID                             : 1
Format                         : AC-3
Format/Info                    : Audio Coding 3
Mode extension                 : CM (complete main)
Format settings, Endianness    : Big
Codec ID                       : 2000
Duration                       : 3mn 13s
Source duration                : 3mn 13s
Bit rate mode                  : Constant
Bit rate                       : 128 Kbps
Channel(s)                     : 2 channels
Channel positions              : Front: L R
Sampling rate                  : 44.1 KHz
Bit depth                      : 16 bits
Compression mode               : Lossy
Stream size                    : 2.96 MiB (15%)
Alignment                      : Aligned on interleaves
Interleave, duration           : 35 ms (0.87 video frame)

Ripper : Manojvb

Extreme 24x7 Seeding


Enjoy TMB Release!